<svg height="1310" width="720" xmlns="http://www.w3.org/2000/svg">
<rect height="1310" fill="#555" width="720"></rect>
<text fill="#7f7" font-family="Courier New" font-size="12" xml:space="preserve">
<tspan x="10" y="26"></tspan>

<tspan x="10" y="42">[MODE_BUILD=buildApp] - 2018-06-10T18:48:01.480Z - npm-testing /home/travis/build/npmtest/node-n\</tspan>
<tspan x="10" y="58">pmtest-debug</tspan>

<tspan x="10" y="74"></tspan>

<tspan x="10" y="90"></tspan>

<tspan x="10" y="106">buildApp - merged test-report from file /home/travis/build/npmtest/node-npmtest-debug/tmp/build/\</tspan>
<tspan x="10" y="122">test-report.json</tspan>

<tspan x="10" y="138">&gt; server listening on http-port 48457</tspan>

<tspan x="10" y="154">apidocCreate - readExample /home/travis/build/npmtest/node-npmtest-debug/node_modules/debug/pack\</tspan>
<tspan x="10" y="170">age.json</tspan>

<tspan x="10" y="186">apidocCreate - readExample /home/travis/build/npmtest/node-npmtest-debug/node_modules/debug/CHAN\</tspan>
<tspan x="10" y="202">GELOG.md</tspan>

<tspan x="10" y="218">apidocCreate - readExample /home/travis/build/npmtest/node-npmtest-debug/node_modules/debug/.cov\</tspan>
<tspan x="10" y="234">eralls.yml</tspan>

<tspan x="10" y="250">apidocCreate - readExample /home/travis/build/npmtest/node-npmtest-debug/node_modules/debug/.esl\</tspan>
<tspan x="10" y="266">intrc</tspan>

<tspan x="10" y="282">apidocCreate - readExample /home/travis/build/npmtest/node-npmtest-debug/node_modules/debug/.git\</tspan>
<tspan x="10" y="298">ignore</tspan>

<tspan x="10" y="314">apidocCreate - readExample /home/travis/build/npmtest/node-npmtest-debug/node_modules/debug/karm\</tspan>
<tspan x="10" y="330">a.conf.js</tspan>

<tspan x="10" y="346">apidocCreate - readExample /home/travis/build/npmtest/node-npmtest-debug/node_modules/debug/LICE\</tspan>
<tspan x="10" y="362">NSE</tspan>

<tspan x="10" y="378">apidocCreate - readExample /home/travis/build/npmtest/node-npmtest-debug/node_modules/debug/Make\</tspan>
<tspan x="10" y="394">file</tspan>

<tspan x="10" y="410">apidocCreate - readExample /home/travis/build/npmtest/node-npmtest-debug/node_modules/debug/node\</tspan>
<tspan x="10" y="426">.js</tspan>

<tspan x="10" y="442">apidocCreate - readExample /home/travis/build/npmtest/node-npmtest-debug/node_modules/debug/.npm\</tspan>
<tspan x="10" y="458">ignore</tspan>

<tspan x="10" y="474">apidocCreate - readExample /home/travis/build/npmtest/node-npmtest-debug/node_modules/debug/pack\</tspan>
<tspan x="10" y="490">age.json</tspan>

<tspan x="10" y="506">apidocCreate - readExample /home/travis/build/npmtest/node-npmtest-debug/node_modules/debug/READ\</tspan>
<tspan x="10" y="522">ME.md</tspan>

<tspan x="10" y="538">apidocCreate - readExample /home/travis/build/npmtest/node-npmtest-debug/node_modules/debug/.tra\</tspan>
<tspan x="10" y="554">vis.yml</tspan>

<tspan x="10" y="570">apidocCreate - readExample /home/travis/build/npmtest/node-npmtest-debug/node_modules/debug/src/\</tspan>
<tspan x="10" y="586">browser.js</tspan>

<tspan x="10" y="602">apidocCreate - readExample /home/travis/build/npmtest/node-npmtest-debug/node_modules/debug/src/\</tspan>
<tspan x="10" y="618">debug.js</tspan>

<tspan x="10" y="634">apidocCreate - readExample /home/travis/build/npmtest/node-npmtest-debug/node_modules/debug/src/\</tspan>
<tspan x="10" y="650">index.js</tspan>

<tspan x="10" y="666">apidocCreate - readExample /home/travis/build/npmtest/node-npmtest-debug/node_modules/debug/src/\</tspan>
<tspan x="10" y="682">node.js</tspan>

<tspan x="10" y="698">apidocCreate - requiring /home/travis/build/npmtest/node-npmtest-debug/node_modules/debug ...</tspan>

<tspan x="10" y="714">apidocCreate - ... required /home/travis/build/npmtest/node-npmtest-debug/node_modules/debug</tspan>

<tspan x="10" y="730">apidocCreate - libFile karma.conf.js</tspan>

<tspan x="10" y="746">apidocCreate - libFile node.js</tspan>

<tspan x="10" y="762">apidocCreate - libFile src/browser.js</tspan>

<tspan x="10" y="778">apidocCreate - libFile src/debug.js</tspan>

<tspan x="10" y="794">apidocCreate - libFile src/node.js</tspan>

<tspan x="10" y="810">created customOrg file /home/travis/build/npmtest/node-npmtest-debug/README.md</tspan>

<tspan x="10" y="826"></tspan>

<tspan x="10" y="842">(node:5757) DeprecationWarning: _linklist module is deprecated. Please use a userland alternativ\</tspan>
<tspan x="10" y="858">e.</tspan>

<tspan x="10" y="874">(node:5757) DeprecationWarning: sys is deprecated. Use util instead.</tspan>

<tspan x="10" y="890">&gt; server listening on http-port 50965</tspan>

<tspan x="10" y="906">[node test-case 1 of 1 passed] - testCase_buildApp_default</tspan>

<tspan x="10" y="922"></tspan>

<tspan x="10" y="938">buildApp - merged test-report from file /home/travis/build/npmtest/node-npmtest-debug/tmp/build/\</tspan>
<tspan x="10" y="954">test-report.json</tspan>

<tspan x="10" y="970"></tspan>

<tspan x="10" y="986">-------------------------------------------------------</tspan>

<tspan x="10" y="1002">| test-report - buildApidoc - node - linux v6.14.2 - 2018-06-10T18:47:29.681Z</tspan>

<tspan x="10" y="1018">|   37789 ms            0 failed        1 passed      |</tspan>

<tspan x="10" y="1034">-------------------------------------------------------</tspan>

<tspan x="10" y="1050">| test-report - buildApp - node - linux v6.14.2 - 2018-06-10T18:47:01.060Z</tspan>

<tspan x="10" y="1066">|   25658 ms            0 failed        8 passed      |</tspan>

<tspan x="10" y="1082">-------------------------------------------------------</tspan>

<tspan x="10" y="1098">| test-report - npmTest - browser - / - Mozilla/5.0 (X11; Linux x86_64) AppleWebKit/537.36 (KHTM\</tspan>
<tspan x="10" y="1114">L, like Gecko) Chrome/58.0.3029.110 Electron/1.7.15 Safari/537.36 - 2018-06-10T18:47:12.071Z</tspan>

<tspan x="10" y="1130">|      42 ms            0 failed        8 passed      |</tspan>

<tspan x="10" y="1146">-------------------------------------------------------</tspan>

<tspan x="10" y="1162"></tspan>

<tspan x="10" y="1178">created test-report file /home/travis/build/npmtest/node-npmtest-debug/tmp/build/test-report.htm\</tspan>
<tspan x="10" y="1194">l</tspan>

<tspan x="10" y="1210"></tspan>

<tspan x="10" y="1226"></tspan>

<tspan x="10" y="1242">buildApp - 0 failed tests</tspan>

<tspan x="10" y="1258"></tspan>

<tspan x="10" y="1274"></tspan>

<tspan x="10" y="1290">[MODE_BUILD=buildApp] - 2018-06-10T18:48:08.971Z - EXIT_CODE - 0</tspan>

</text>
</svg>
